<mxfile host="app.diagrams.net" modified="2023-10-17T10:39:20.810Z" agent="Mozilla/5.0 (X11; CrOS x86_64 14541.0.0) AppleWebKit/537.36 (KHTML, like Gecko) Chrome/117.0.0.0 Safari/537.36" etag="Qpwef3sawGqSTDtCBt3h" version="22.0.4" type="github">
  <diagram name="Página-1" id="jcxZJBVpxn200TFngyVI">
    <mxGraphModel dx="2577" dy="2061" grid="1" gridSize="10" guides="1" tooltips="1" connect="1" arrows="1" fold="1" page="1" pageScale="1" pageWidth="827" pageHeight="1169" math="0" shadow="0">
      <root>
        <mxCell id="0" />
        <mxCell id="1" parent="0" />
        <mxCell id="oYIXcsxwPsf1ZKh4rRwn-1" value="humano" style="rounded=1;arcSize=10;whiteSpace=wrap;html=1;align=center;fillColor=#dae8fc;strokeColor=#6c8ebf;" parent="1" vertex="1">
          <mxGeometry x="110" y="480" width="100" height="40" as="geometry" />
        </mxCell>
        <mxCell id="oYIXcsxwPsf1ZKh4rRwn-3" value="vulkano" style="rounded=1;arcSize=10;whiteSpace=wrap;html=1;align=center;fillColor=#dae8fc;strokeColor=#6c8ebf;" parent="1" vertex="1">
          <mxGeometry x="287.5" y="480" width="100" height="40" as="geometry" />
        </mxCell>
        <mxCell id="oYIXcsxwPsf1ZKh4rRwn-4" value="klingon" style="rounded=1;arcSize=10;whiteSpace=wrap;html=1;align=center;fillColor=#dae8fc;strokeColor=#6c8ebf;" parent="1" vertex="1">
          <mxGeometry x="450" y="480" width="100" height="40" as="geometry" />
        </mxCell>
        <mxCell id="w21d68cJpRMcP1cQmCNz-1" value="actores" style="rounded=1;arcSize=10;whiteSpace=wrap;html=1;align=center;fillColor=#dae8fc;strokeColor=#6c8ebf;" vertex="1" parent="1">
          <mxGeometry x="-140" y="250" width="100" height="40" as="geometry" />
        </mxCell>
        <mxCell id="w21d68cJpRMcP1cQmCNz-31" style="edgeStyle=orthogonalEdgeStyle;rounded=0;orthogonalLoop=1;jettySize=auto;html=1;exitX=0;exitY=0.5;exitDx=0;exitDy=0;entryX=1;entryY=0.5;entryDx=0;entryDy=0;endArrow=none;endFill=0;" edge="1" parent="1" source="w21d68cJpRMcP1cQmCNz-2" target="w21d68cJpRMcP1cQmCNz-17">
          <mxGeometry relative="1" as="geometry" />
        </mxCell>
        <mxCell id="w21d68cJpRMcP1cQmCNz-76" style="edgeStyle=orthogonalEdgeStyle;rounded=0;orthogonalLoop=1;jettySize=auto;html=1;exitX=0.5;exitY=0;exitDx=0;exitDy=0;entryX=0.5;entryY=1;entryDx=0;entryDy=0;endArrow=none;endFill=0;" edge="1" parent="1" source="w21d68cJpRMcP1cQmCNz-2" target="w21d68cJpRMcP1cQmCNz-19">
          <mxGeometry relative="1" as="geometry" />
        </mxCell>
        <mxCell id="w21d68cJpRMcP1cQmCNz-2" value="personajes" style="rounded=1;arcSize=10;whiteSpace=wrap;html=1;align=center;fillColor=#dae8fc;strokeColor=#6c8ebf;" vertex="1" parent="1">
          <mxGeometry x="287.5" y="250" width="100" height="40" as="geometry" />
        </mxCell>
        <mxCell id="w21d68cJpRMcP1cQmCNz-60" style="edgeStyle=orthogonalEdgeStyle;rounded=0;orthogonalLoop=1;jettySize=auto;html=1;exitX=1;exitY=0;exitDx=0;exitDy=0;entryX=0;entryY=1;entryDx=0;entryDy=0;endArrow=none;endFill=0;" edge="1" parent="1" source="w21d68cJpRMcP1cQmCNz-3" target="w21d68cJpRMcP1cQmCNz-56">
          <mxGeometry relative="1" as="geometry" />
        </mxCell>
        <mxCell id="w21d68cJpRMcP1cQmCNz-61" style="edgeStyle=orthogonalEdgeStyle;rounded=0;orthogonalLoop=1;jettySize=auto;html=1;exitX=1;exitY=0.5;exitDx=0;exitDy=0;entryX=0;entryY=0;entryDx=0;entryDy=0;endArrow=none;endFill=0;" edge="1" parent="1" source="w21d68cJpRMcP1cQmCNz-3" target="w21d68cJpRMcP1cQmCNz-57">
          <mxGeometry relative="1" as="geometry" />
        </mxCell>
        <mxCell id="w21d68cJpRMcP1cQmCNz-3" value="películas" style="rounded=1;arcSize=10;whiteSpace=wrap;html=1;align=center;fillColor=#dae8fc;strokeColor=#6c8ebf;" vertex="1" parent="1">
          <mxGeometry x="710" y="250" width="100" height="40" as="geometry" />
        </mxCell>
        <mxCell id="w21d68cJpRMcP1cQmCNz-74" style="edgeStyle=orthogonalEdgeStyle;rounded=0;orthogonalLoop=1;jettySize=auto;html=1;exitX=1;exitY=0.25;exitDx=0;exitDy=0;entryX=0;entryY=1;entryDx=0;entryDy=0;endArrow=none;endFill=0;" edge="1" parent="1" source="w21d68cJpRMcP1cQmCNz-4" target="w21d68cJpRMcP1cQmCNz-67">
          <mxGeometry relative="1" as="geometry" />
        </mxCell>
        <mxCell id="w21d68cJpRMcP1cQmCNz-87" style="edgeStyle=orthogonalEdgeStyle;rounded=0;orthogonalLoop=1;jettySize=auto;html=1;exitX=0.5;exitY=0;exitDx=0;exitDy=0;entryX=0.5;entryY=1;entryDx=0;entryDy=0;endArrow=none;endFill=0;" edge="1" parent="1" source="w21d68cJpRMcP1cQmCNz-4" target="w21d68cJpRMcP1cQmCNz-20">
          <mxGeometry relative="1" as="geometry" />
        </mxCell>
        <mxCell id="w21d68cJpRMcP1cQmCNz-4" value="capítulos" style="rounded=1;arcSize=10;whiteSpace=wrap;html=1;align=center;fillColor=#dae8fc;strokeColor=#6c8ebf;" vertex="1" parent="1">
          <mxGeometry x="288.5" y="-80" width="100" height="40" as="geometry" />
        </mxCell>
        <mxCell id="w21d68cJpRMcP1cQmCNz-96" style="edgeStyle=orthogonalEdgeStyle;rounded=0;orthogonalLoop=1;jettySize=auto;html=1;exitX=1;exitY=0.5;exitDx=0;exitDy=0;entryX=0;entryY=0.5;entryDx=0;entryDy=0;endArrow=none;endFill=0;" edge="1" parent="1" source="w21d68cJpRMcP1cQmCNz-5" target="w21d68cJpRMcP1cQmCNz-21">
          <mxGeometry relative="1" as="geometry" />
        </mxCell>
        <mxCell id="w21d68cJpRMcP1cQmCNz-5" value="planetas" style="rounded=1;arcSize=10;whiteSpace=wrap;html=1;align=center;fillColor=#dae8fc;strokeColor=#6c8ebf;" vertex="1" parent="1">
          <mxGeometry x="290" y="-460" width="100" height="40" as="geometry" />
        </mxCell>
        <mxCell id="w21d68cJpRMcP1cQmCNz-6" value="nave" style="rounded=1;arcSize=10;whiteSpace=wrap;html=1;align=center;fillColor=#dae8fc;strokeColor=#6c8ebf;" vertex="1" parent="1">
          <mxGeometry x="650" y="-460" width="100" height="40" as="geometry" />
        </mxCell>
        <mxCell id="w21d68cJpRMcP1cQmCNz-102" style="edgeStyle=orthogonalEdgeStyle;rounded=0;orthogonalLoop=1;jettySize=auto;html=1;exitX=0.5;exitY=0;exitDx=0;exitDy=0;entryX=0.5;entryY=1;entryDx=0;entryDy=0;endArrow=none;endFill=0;" edge="1" parent="1" source="w21d68cJpRMcP1cQmCNz-7" target="w21d68cJpRMcP1cQmCNz-22">
          <mxGeometry relative="1" as="geometry" />
        </mxCell>
        <mxCell id="w21d68cJpRMcP1cQmCNz-7" value="lanzadera" style="shape=ext;margin=3;double=1;whiteSpace=wrap;html=1;align=center;fillColor=#dae8fc;strokeColor=#6c8ebf;" vertex="1" parent="1">
          <mxGeometry x="650" y="-220" width="100" height="40" as="geometry" />
        </mxCell>
        <mxCell id="w21d68cJpRMcP1cQmCNz-10" style="edgeStyle=orthogonalEdgeStyle;rounded=0;orthogonalLoop=1;jettySize=auto;html=1;exitX=0.22;exitY=0.5;exitDx=0;exitDy=0;exitPerimeter=0;entryX=0.5;entryY=0;entryDx=0;entryDy=0;endArrow=none;endFill=0;" edge="1" parent="1" source="w21d68cJpRMcP1cQmCNz-8" target="oYIXcsxwPsf1ZKh4rRwn-1">
          <mxGeometry relative="1" as="geometry" />
        </mxCell>
        <mxCell id="w21d68cJpRMcP1cQmCNz-11" style="edgeStyle=orthogonalEdgeStyle;rounded=0;orthogonalLoop=1;jettySize=auto;html=1;exitX=0.78;exitY=0.5;exitDx=0;exitDy=0;exitPerimeter=0;entryX=0.5;entryY=0;entryDx=0;entryDy=0;endArrow=none;endFill=0;" edge="1" parent="1" source="w21d68cJpRMcP1cQmCNz-8" target="oYIXcsxwPsf1ZKh4rRwn-4">
          <mxGeometry relative="1" as="geometry" />
        </mxCell>
        <mxCell id="w21d68cJpRMcP1cQmCNz-12" style="edgeStyle=orthogonalEdgeStyle;rounded=0;orthogonalLoop=1;jettySize=auto;html=1;exitX=0.5;exitY=1;exitDx=0;exitDy=0;exitPerimeter=0;endArrow=none;endFill=0;" edge="1" parent="1" source="w21d68cJpRMcP1cQmCNz-8" target="oYIXcsxwPsf1ZKh4rRwn-3">
          <mxGeometry relative="1" as="geometry" />
        </mxCell>
        <mxCell id="w21d68cJpRMcP1cQmCNz-8" value="" style="strokeWidth=2;html=1;shape=mxgraph.flowchart.extract_or_measurement;whiteSpace=wrap;fillColor=#d5e8d4;strokeColor=#82b366;" vertex="1" parent="1">
          <mxGeometry x="290.5" y="340" width="95" height="60" as="geometry" />
        </mxCell>
        <mxCell id="w21d68cJpRMcP1cQmCNz-13" style="edgeStyle=orthogonalEdgeStyle;rounded=0;orthogonalLoop=1;jettySize=auto;html=1;exitX=0.5;exitY=1;exitDx=0;exitDy=0;entryX=0.5;entryY=0;entryDx=0;entryDy=0;entryPerimeter=0;endArrow=circle;endFill=0;" edge="1" parent="1" source="w21d68cJpRMcP1cQmCNz-2" target="w21d68cJpRMcP1cQmCNz-8">
          <mxGeometry relative="1" as="geometry" />
        </mxCell>
        <mxCell id="w21d68cJpRMcP1cQmCNz-14" value="tipo" style="ellipse;whiteSpace=wrap;html=1;aspect=fixed;fillColor=#d5e8d4;strokeColor=#82b366;" vertex="1" parent="1">
          <mxGeometry x="370" y="330" width="30" height="30" as="geometry" />
        </mxCell>
        <mxCell id="w21d68cJpRMcP1cQmCNz-15" style="edgeStyle=orthogonalEdgeStyle;rounded=0;orthogonalLoop=1;jettySize=auto;html=1;exitX=0;exitY=0.5;exitDx=0;exitDy=0;entryX=0.678;entryY=0.291;entryDx=0;entryDy=0;entryPerimeter=0;endArrow=none;endFill=0;" edge="1" parent="1" source="w21d68cJpRMcP1cQmCNz-14" target="w21d68cJpRMcP1cQmCNz-8">
          <mxGeometry relative="1" as="geometry" />
        </mxCell>
        <mxCell id="w21d68cJpRMcP1cQmCNz-16" value="" style="shape=requiredInterface;html=1;verticalLabelPosition=bottom;sketch=0;rotation=90;" vertex="1" parent="1">
          <mxGeometry x="312.5" y="290" width="50" height="184.89" as="geometry" />
        </mxCell>
        <mxCell id="w21d68cJpRMcP1cQmCNz-32" style="edgeStyle=orthogonalEdgeStyle;rounded=0;orthogonalLoop=1;jettySize=auto;html=1;exitX=0;exitY=0.5;exitDx=0;exitDy=0;entryX=1;entryY=0.5;entryDx=0;entryDy=0;endArrow=none;endFill=0;" edge="1" parent="1" source="w21d68cJpRMcP1cQmCNz-17" target="w21d68cJpRMcP1cQmCNz-1">
          <mxGeometry relative="1" as="geometry" />
        </mxCell>
        <mxCell id="w21d68cJpRMcP1cQmCNz-17" value="interpreta" style="shape=rhombus;perimeter=rhombusPerimeter;whiteSpace=wrap;html=1;align=center;fillColor=#d5e8d4;strokeColor=#82b366;" vertex="1" parent="1">
          <mxGeometry x="60" y="240" width="120" height="60" as="geometry" />
        </mxCell>
        <mxCell id="w21d68cJpRMcP1cQmCNz-64" style="edgeStyle=orthogonalEdgeStyle;rounded=0;orthogonalLoop=1;jettySize=auto;html=1;exitX=0;exitY=0.5;exitDx=0;exitDy=0;endArrow=none;endFill=0;" edge="1" parent="1" source="w21d68cJpRMcP1cQmCNz-18">
          <mxGeometry relative="1" as="geometry">
            <mxPoint x="390" y="269.5" as="targetPoint" />
          </mxGeometry>
        </mxCell>
        <mxCell id="w21d68cJpRMcP1cQmCNz-65" style="edgeStyle=orthogonalEdgeStyle;rounded=0;orthogonalLoop=1;jettySize=auto;html=1;exitX=1;exitY=0.5;exitDx=0;exitDy=0;entryX=0;entryY=0.5;entryDx=0;entryDy=0;endArrow=none;endFill=0;" edge="1" parent="1" source="w21d68cJpRMcP1cQmCNz-18" target="w21d68cJpRMcP1cQmCNz-3">
          <mxGeometry relative="1" as="geometry" />
        </mxCell>
        <mxCell id="w21d68cJpRMcP1cQmCNz-18" value="aparece" style="shape=rhombus;perimeter=rhombusPerimeter;whiteSpace=wrap;html=1;align=center;fillColor=#d5e8d4;strokeColor=#82b366;" vertex="1" parent="1">
          <mxGeometry x="510" y="240" width="120" height="60" as="geometry" />
        </mxCell>
        <mxCell id="w21d68cJpRMcP1cQmCNz-77" style="edgeStyle=orthogonalEdgeStyle;rounded=0;orthogonalLoop=1;jettySize=auto;html=1;exitX=0.5;exitY=0;exitDx=0;exitDy=0;endArrow=none;endFill=0;" edge="1" parent="1" source="w21d68cJpRMcP1cQmCNz-19" target="w21d68cJpRMcP1cQmCNz-4">
          <mxGeometry relative="1" as="geometry" />
        </mxCell>
        <mxCell id="w21d68cJpRMcP1cQmCNz-19" value="participa" style="shape=rhombus;perimeter=rhombusPerimeter;whiteSpace=wrap;html=1;align=center;fillColor=#d5e8d4;strokeColor=#82b366;" vertex="1" parent="1">
          <mxGeometry x="278" y="80" width="120" height="60" as="geometry" />
        </mxCell>
        <mxCell id="w21d68cJpRMcP1cQmCNz-89" style="edgeStyle=orthogonalEdgeStyle;rounded=0;orthogonalLoop=1;jettySize=auto;html=1;exitX=0.5;exitY=0;exitDx=0;exitDy=0;entryX=0.5;entryY=1;entryDx=0;entryDy=0;endArrow=none;endFill=0;" edge="1" parent="1" source="w21d68cJpRMcP1cQmCNz-20" target="w21d68cJpRMcP1cQmCNz-5">
          <mxGeometry relative="1" as="geometry" />
        </mxCell>
        <mxCell id="w21d68cJpRMcP1cQmCNz-20" value="visita" style="shape=rhombus;perimeter=rhombusPerimeter;whiteSpace=wrap;html=1;align=center;fillColor=#d5e8d4;strokeColor=#82b366;" vertex="1" parent="1">
          <mxGeometry x="279" y="-273" width="120" height="60" as="geometry" />
        </mxCell>
        <mxCell id="w21d68cJpRMcP1cQmCNz-97" style="edgeStyle=orthogonalEdgeStyle;rounded=0;orthogonalLoop=1;jettySize=auto;html=1;exitX=1;exitY=0.5;exitDx=0;exitDy=0;entryX=0;entryY=0.5;entryDx=0;entryDy=0;endArrow=none;endFill=0;" edge="1" parent="1" source="w21d68cJpRMcP1cQmCNz-21" target="w21d68cJpRMcP1cQmCNz-6">
          <mxGeometry relative="1" as="geometry" />
        </mxCell>
        <mxCell id="w21d68cJpRMcP1cQmCNz-21" value="viaje" style="shape=rhombus;perimeter=rhombusPerimeter;whiteSpace=wrap;html=1;align=center;fillColor=#d5e8d4;strokeColor=#82b366;" vertex="1" parent="1">
          <mxGeometry x="460" y="-470" width="120" height="60" as="geometry" />
        </mxCell>
        <mxCell id="w21d68cJpRMcP1cQmCNz-103" style="edgeStyle=orthogonalEdgeStyle;rounded=0;orthogonalLoop=1;jettySize=auto;html=1;exitX=0.5;exitY=0;exitDx=0;exitDy=0;entryX=0.5;entryY=1;entryDx=0;entryDy=0;endArrow=none;endFill=0;" edge="1" parent="1" source="w21d68cJpRMcP1cQmCNz-22" target="w21d68cJpRMcP1cQmCNz-6">
          <mxGeometry relative="1" as="geometry" />
        </mxCell>
        <mxCell id="w21d68cJpRMcP1cQmCNz-22" value="tiene" style="shape=rhombus;perimeter=rhombusPerimeter;whiteSpace=wrap;html=1;align=center;fillColor=#d5e8d4;strokeColor=#82b366;" vertex="1" parent="1">
          <mxGeometry x="640" y="-360" width="120" height="60" as="geometry" />
        </mxCell>
        <mxCell id="w21d68cJpRMcP1cQmCNz-27" style="edgeStyle=orthogonalEdgeStyle;rounded=0;orthogonalLoop=1;jettySize=auto;html=1;exitX=0.5;exitY=0;exitDx=0;exitDy=0;entryX=0.5;entryY=1;entryDx=0;entryDy=0;endArrow=none;endFill=0;" edge="1" parent="1" source="w21d68cJpRMcP1cQmCNz-23" target="w21d68cJpRMcP1cQmCNz-1">
          <mxGeometry relative="1" as="geometry" />
        </mxCell>
        <mxCell id="w21d68cJpRMcP1cQmCNz-23" value="nombre" style="ellipse;whiteSpace=wrap;html=1;align=center;" vertex="1" parent="1">
          <mxGeometry x="-120" y="340" width="70" height="40" as="geometry" />
        </mxCell>
        <mxCell id="w21d68cJpRMcP1cQmCNz-30" style="edgeStyle=orthogonalEdgeStyle;rounded=0;orthogonalLoop=1;jettySize=auto;html=1;exitX=1;exitY=0.5;exitDx=0;exitDy=0;endArrow=none;endFill=0;" edge="1" parent="1" source="w21d68cJpRMcP1cQmCNz-24" target="w21d68cJpRMcP1cQmCNz-1">
          <mxGeometry relative="1" as="geometry" />
        </mxCell>
        <mxCell id="w21d68cJpRMcP1cQmCNz-24" value="&lt;u&gt;ID&lt;/u&gt;" style="ellipse;whiteSpace=wrap;html=1;align=center;fillColor=#ffe6cc;strokeColor=#d79b00;" vertex="1" parent="1">
          <mxGeometry x="-240" y="230" width="50" height="30" as="geometry" />
        </mxCell>
        <mxCell id="w21d68cJpRMcP1cQmCNz-28" style="edgeStyle=orthogonalEdgeStyle;rounded=0;orthogonalLoop=1;jettySize=auto;html=1;exitX=1;exitY=0;exitDx=0;exitDy=0;entryX=0.25;entryY=1;entryDx=0;entryDy=0;endArrow=none;endFill=0;" edge="1" parent="1" source="w21d68cJpRMcP1cQmCNz-25" target="w21d68cJpRMcP1cQmCNz-1">
          <mxGeometry relative="1" as="geometry" />
        </mxCell>
        <mxCell id="w21d68cJpRMcP1cQmCNz-25" value="fecha de nacimiento" style="ellipse;whiteSpace=wrap;html=1;align=center;" vertex="1" parent="1">
          <mxGeometry x="-210" y="340" width="70" height="40" as="geometry" />
        </mxCell>
        <mxCell id="w21d68cJpRMcP1cQmCNz-29" style="edgeStyle=orthogonalEdgeStyle;rounded=0;orthogonalLoop=1;jettySize=auto;html=1;exitX=1;exitY=0.5;exitDx=0;exitDy=0;entryX=0;entryY=0.75;entryDx=0;entryDy=0;endArrow=none;endFill=0;" edge="1" parent="1" source="w21d68cJpRMcP1cQmCNz-26" target="w21d68cJpRMcP1cQmCNz-1">
          <mxGeometry relative="1" as="geometry" />
        </mxCell>
        <mxCell id="w21d68cJpRMcP1cQmCNz-26" value="nacionalidad" style="ellipse;whiteSpace=wrap;html=1;align=center;" vertex="1" parent="1">
          <mxGeometry x="-260" y="300" width="70" height="40" as="geometry" />
        </mxCell>
        <mxCell id="w21d68cJpRMcP1cQmCNz-44" style="edgeStyle=orthogonalEdgeStyle;rounded=0;orthogonalLoop=1;jettySize=auto;html=1;exitX=0.5;exitY=0;exitDx=0;exitDy=0;entryX=0.5;entryY=1;entryDx=0;entryDy=0;endArrow=none;endFill=0;" edge="1" parent="1" source="w21d68cJpRMcP1cQmCNz-33" target="oYIXcsxwPsf1ZKh4rRwn-1">
          <mxGeometry relative="1" as="geometry" />
        </mxCell>
        <mxCell id="w21d68cJpRMcP1cQmCNz-33" value="fecha de nacimiento" style="ellipse;whiteSpace=wrap;html=1;align=center;" vertex="1" parent="1">
          <mxGeometry x="60" y="552.5" width="70" height="40" as="geometry" />
        </mxCell>
        <mxCell id="w21d68cJpRMcP1cQmCNz-43" style="edgeStyle=orthogonalEdgeStyle;rounded=0;orthogonalLoop=1;jettySize=auto;html=1;exitX=0.5;exitY=0;exitDx=0;exitDy=0;entryX=0.75;entryY=1;entryDx=0;entryDy=0;endArrow=none;endFill=0;" edge="1" parent="1" source="w21d68cJpRMcP1cQmCNz-35" target="oYIXcsxwPsf1ZKh4rRwn-1">
          <mxGeometry relative="1" as="geometry" />
        </mxCell>
        <mxCell id="w21d68cJpRMcP1cQmCNz-35" value="&lt;u&gt;ID&lt;/u&gt;" style="ellipse;whiteSpace=wrap;html=1;align=center;fillColor=#ffe6cc;strokeColor=#d79b00;" vertex="1" parent="1">
          <mxGeometry x="160" y="552.5" width="50" height="30" as="geometry" />
        </mxCell>
        <mxCell id="w21d68cJpRMcP1cQmCNz-45" style="edgeStyle=orthogonalEdgeStyle;rounded=0;orthogonalLoop=1;jettySize=auto;html=1;exitX=1;exitY=0.5;exitDx=0;exitDy=0;entryX=0;entryY=0.75;entryDx=0;entryDy=0;endArrow=none;endFill=0;" edge="1" parent="1" source="w21d68cJpRMcP1cQmCNz-36" target="oYIXcsxwPsf1ZKh4rRwn-1">
          <mxGeometry relative="1" as="geometry" />
        </mxCell>
        <mxCell id="w21d68cJpRMcP1cQmCNz-36" value="ciudad terráquea" style="ellipse;whiteSpace=wrap;html=1;align=center;" vertex="1" parent="1">
          <mxGeometry x="10" y="490" width="70" height="40" as="geometry" />
        </mxCell>
        <mxCell id="w21d68cJpRMcP1cQmCNz-37" value="nombre" style="ellipse;whiteSpace=wrap;html=1;align=center;" vertex="1" parent="1">
          <mxGeometry x="300" y="582.5" width="70" height="40" as="geometry" />
        </mxCell>
        <mxCell id="w21d68cJpRMcP1cQmCNz-48" style="edgeStyle=orthogonalEdgeStyle;rounded=0;orthogonalLoop=1;jettySize=auto;html=1;exitX=0.5;exitY=0;exitDx=0;exitDy=0;entryX=0.75;entryY=1;entryDx=0;entryDy=0;endArrow=none;endFill=0;" edge="1" parent="1" source="w21d68cJpRMcP1cQmCNz-38" target="oYIXcsxwPsf1ZKh4rRwn-3">
          <mxGeometry relative="1" as="geometry" />
        </mxCell>
        <mxCell id="w21d68cJpRMcP1cQmCNz-38" value="fecha de graduación" style="ellipse;whiteSpace=wrap;html=1;align=center;" vertex="1" parent="1">
          <mxGeometry x="350" y="540" width="70" height="40" as="geometry" />
        </mxCell>
        <mxCell id="w21d68cJpRMcP1cQmCNz-46" style="edgeStyle=orthogonalEdgeStyle;rounded=0;orthogonalLoop=1;jettySize=auto;html=1;exitX=0.5;exitY=0;exitDx=0;exitDy=0;entryX=0;entryY=1;entryDx=0;entryDy=0;endArrow=none;endFill=0;" edge="1" parent="1" source="w21d68cJpRMcP1cQmCNz-39" target="oYIXcsxwPsf1ZKh4rRwn-3">
          <mxGeometry relative="1" as="geometry" />
        </mxCell>
        <mxCell id="w21d68cJpRMcP1cQmCNz-39" value="&lt;u&gt;ID&lt;/u&gt;" style="ellipse;whiteSpace=wrap;html=1;align=center;fillColor=#ffe6cc;strokeColor=#d79b00;" vertex="1" parent="1">
          <mxGeometry x="270" y="540" width="50" height="30" as="geometry" />
        </mxCell>
        <mxCell id="w21d68cJpRMcP1cQmCNz-49" style="edgeStyle=orthogonalEdgeStyle;rounded=0;orthogonalLoop=1;jettySize=auto;html=1;exitX=0.5;exitY=0;exitDx=0;exitDy=0;entryX=0.5;entryY=1;entryDx=0;entryDy=0;endArrow=none;endFill=0;" edge="1" parent="1" source="w21d68cJpRMcP1cQmCNz-40" target="oYIXcsxwPsf1ZKh4rRwn-4">
          <mxGeometry relative="1" as="geometry" />
        </mxCell>
        <mxCell id="w21d68cJpRMcP1cQmCNz-40" value="&lt;u&gt;ID&lt;/u&gt;" style="ellipse;whiteSpace=wrap;html=1;align=center;fillColor=#ffe6cc;strokeColor=#d79b00;" vertex="1" parent="1">
          <mxGeometry x="470" y="540" width="50" height="30" as="geometry" />
        </mxCell>
        <mxCell id="w21d68cJpRMcP1cQmCNz-51" style="edgeStyle=orthogonalEdgeStyle;rounded=0;orthogonalLoop=1;jettySize=auto;html=1;exitX=0;exitY=0.5;exitDx=0;exitDy=0;entryX=1;entryY=0.5;entryDx=0;entryDy=0;endArrow=none;endFill=0;" edge="1" parent="1" source="w21d68cJpRMcP1cQmCNz-41" target="oYIXcsxwPsf1ZKh4rRwn-4">
          <mxGeometry relative="1" as="geometry" />
        </mxCell>
        <mxCell id="w21d68cJpRMcP1cQmCNz-41" value="planeta natal" style="ellipse;whiteSpace=wrap;html=1;align=center;" vertex="1" parent="1">
          <mxGeometry x="570" y="480" width="70" height="40" as="geometry" />
        </mxCell>
        <mxCell id="w21d68cJpRMcP1cQmCNz-42" value="fecha ultimo combate" style="ellipse;whiteSpace=wrap;html=1;align=center;" vertex="1" parent="1">
          <mxGeometry x="530" y="540" width="80" height="45" as="geometry" />
        </mxCell>
        <mxCell id="w21d68cJpRMcP1cQmCNz-47" style="edgeStyle=orthogonalEdgeStyle;rounded=0;orthogonalLoop=1;jettySize=auto;html=1;exitX=0.5;exitY=0;exitDx=0;exitDy=0;entryX=0.414;entryY=0.974;entryDx=0;entryDy=0;entryPerimeter=0;endArrow=none;endFill=0;" edge="1" parent="1" source="w21d68cJpRMcP1cQmCNz-37" target="oYIXcsxwPsf1ZKh4rRwn-3">
          <mxGeometry relative="1" as="geometry" />
        </mxCell>
        <mxCell id="w21d68cJpRMcP1cQmCNz-50" style="edgeStyle=orthogonalEdgeStyle;rounded=0;orthogonalLoop=1;jettySize=auto;html=1;exitX=0;exitY=0;exitDx=0;exitDy=0;entryX=0.924;entryY=1.065;entryDx=0;entryDy=0;entryPerimeter=0;endArrow=none;endFill=0;" edge="1" parent="1" source="w21d68cJpRMcP1cQmCNz-42" target="oYIXcsxwPsf1ZKh4rRwn-4">
          <mxGeometry relative="1" as="geometry" />
        </mxCell>
        <mxCell id="w21d68cJpRMcP1cQmCNz-53" style="edgeStyle=orthogonalEdgeStyle;rounded=0;orthogonalLoop=1;jettySize=auto;html=1;exitX=0;exitY=1;exitDx=0;exitDy=0;entryX=1;entryY=0;entryDx=0;entryDy=0;endArrow=none;endFill=0;" edge="1" parent="1" source="w21d68cJpRMcP1cQmCNz-52" target="w21d68cJpRMcP1cQmCNz-2">
          <mxGeometry relative="1" as="geometry" />
        </mxCell>
        <mxCell id="w21d68cJpRMcP1cQmCNz-52" value="&lt;u&gt;ID&lt;/u&gt;" style="ellipse;whiteSpace=wrap;html=1;align=center;fillColor=#ffe6cc;strokeColor=#d79b00;" vertex="1" parent="1">
          <mxGeometry x="385.5" y="216" width="50" height="30" as="geometry" />
        </mxCell>
        <mxCell id="w21d68cJpRMcP1cQmCNz-56" value="&lt;u&gt;ID&lt;/u&gt;" style="ellipse;whiteSpace=wrap;html=1;align=center;fillColor=#ffe6cc;strokeColor=#d79b00;" vertex="1" parent="1">
          <mxGeometry x="827" y="210" width="50" height="30" as="geometry" />
        </mxCell>
        <mxCell id="w21d68cJpRMcP1cQmCNz-57" value="año lanzamiento" style="ellipse;whiteSpace=wrap;html=1;align=center;" vertex="1" parent="1">
          <mxGeometry x="827" y="270" width="83" height="50" as="geometry" />
        </mxCell>
        <mxCell id="w21d68cJpRMcP1cQmCNz-63" style="edgeStyle=orthogonalEdgeStyle;rounded=0;orthogonalLoop=1;jettySize=auto;html=1;exitX=0.5;exitY=0;exitDx=0;exitDy=0;endArrow=none;endFill=0;" edge="1" parent="1" source="w21d68cJpRMcP1cQmCNz-58" target="w21d68cJpRMcP1cQmCNz-3">
          <mxGeometry relative="1" as="geometry" />
        </mxCell>
        <mxCell id="w21d68cJpRMcP1cQmCNz-58" value="título" style="ellipse;whiteSpace=wrap;html=1;align=center;" vertex="1" parent="1">
          <mxGeometry x="714" y="320" width="66" height="40" as="geometry" />
        </mxCell>
        <mxCell id="w21d68cJpRMcP1cQmCNz-59" value="director" style="ellipse;whiteSpace=wrap;html=1;align=center;" vertex="1" parent="1">
          <mxGeometry x="790" y="340" width="76" height="40" as="geometry" />
        </mxCell>
        <mxCell id="w21d68cJpRMcP1cQmCNz-62" style="edgeStyle=orthogonalEdgeStyle;rounded=0;orthogonalLoop=1;jettySize=auto;html=1;exitX=0.5;exitY=0;exitDx=0;exitDy=0;entryX=0.925;entryY=1.095;entryDx=0;entryDy=0;entryPerimeter=0;endArrow=none;endFill=0;" edge="1" parent="1" source="w21d68cJpRMcP1cQmCNz-59" target="w21d68cJpRMcP1cQmCNz-3">
          <mxGeometry relative="1" as="geometry" />
        </mxCell>
        <mxCell id="w21d68cJpRMcP1cQmCNz-73" style="edgeStyle=orthogonalEdgeStyle;rounded=0;orthogonalLoop=1;jettySize=auto;html=1;exitX=1;exitY=1;exitDx=0;exitDy=0;endArrow=none;endFill=0;" edge="1" parent="1" source="w21d68cJpRMcP1cQmCNz-66">
          <mxGeometry relative="1" as="geometry">
            <mxPoint x="290" y="-70" as="targetPoint" />
          </mxGeometry>
        </mxCell>
        <mxCell id="w21d68cJpRMcP1cQmCNz-66" value="&lt;u&gt;ID&lt;/u&gt;" style="ellipse;whiteSpace=wrap;html=1;align=center;fillColor=#ffe6cc;strokeColor=#d79b00;" vertex="1" parent="1">
          <mxGeometry x="220" y="-111" width="50" height="30" as="geometry" />
        </mxCell>
        <mxCell id="w21d68cJpRMcP1cQmCNz-67" value="temporada" style="ellipse;whiteSpace=wrap;html=1;align=center;" vertex="1" parent="1">
          <mxGeometry x="395" y="-108" width="73" height="40" as="geometry" />
        </mxCell>
        <mxCell id="w21d68cJpRMcP1cQmCNz-72" style="edgeStyle=orthogonalEdgeStyle;rounded=0;orthogonalLoop=1;jettySize=auto;html=1;exitX=1;exitY=0.5;exitDx=0;exitDy=0;endArrow=none;endFill=0;" edge="1" parent="1" source="w21d68cJpRMcP1cQmCNz-68" target="w21d68cJpRMcP1cQmCNz-4">
          <mxGeometry relative="1" as="geometry" />
        </mxCell>
        <mxCell id="w21d68cJpRMcP1cQmCNz-68" value="título" style="ellipse;whiteSpace=wrap;html=1;align=center;" vertex="1" parent="1">
          <mxGeometry x="197" y="-75" width="63" height="30" as="geometry" />
        </mxCell>
        <mxCell id="w21d68cJpRMcP1cQmCNz-75" style="edgeStyle=orthogonalEdgeStyle;rounded=0;orthogonalLoop=1;jettySize=auto;html=1;exitX=0;exitY=0;exitDx=0;exitDy=0;entryX=1;entryY=0.75;entryDx=0;entryDy=0;endArrow=none;endFill=0;" edge="1" parent="1" source="w21d68cJpRMcP1cQmCNz-69" target="w21d68cJpRMcP1cQmCNz-4">
          <mxGeometry relative="1" as="geometry" />
        </mxCell>
        <mxCell id="w21d68cJpRMcP1cQmCNz-69" value="orden rodaje" style="ellipse;whiteSpace=wrap;html=1;align=center;" vertex="1" parent="1">
          <mxGeometry x="397" y="-52" width="73" height="30" as="geometry" />
        </mxCell>
        <mxCell id="w21d68cJpRMcP1cQmCNz-71" style="edgeStyle=orthogonalEdgeStyle;rounded=0;orthogonalLoop=1;jettySize=auto;html=1;exitX=1;exitY=0.5;exitDx=0;exitDy=0;entryX=0;entryY=0.75;entryDx=0;entryDy=0;endArrow=none;endFill=0;" edge="1" parent="1" source="w21d68cJpRMcP1cQmCNz-70" target="w21d68cJpRMcP1cQmCNz-4">
          <mxGeometry relative="1" as="geometry" />
        </mxCell>
        <mxCell id="w21d68cJpRMcP1cQmCNz-70" value="primera emisión" style="ellipse;whiteSpace=wrap;html=1;align=center;" vertex="1" parent="1">
          <mxGeometry x="197" y="-41" width="73" height="30" as="geometry" />
        </mxCell>
        <mxCell id="w21d68cJpRMcP1cQmCNz-86" style="edgeStyle=orthogonalEdgeStyle;rounded=0;orthogonalLoop=1;jettySize=auto;html=1;exitX=1;exitY=0.5;exitDx=0;exitDy=0;endArrow=none;endFill=0;" edge="1" parent="1" source="w21d68cJpRMcP1cQmCNz-78">
          <mxGeometry relative="1" as="geometry">
            <mxPoint x="290" y="-420" as="targetPoint" />
          </mxGeometry>
        </mxCell>
        <mxCell id="w21d68cJpRMcP1cQmCNz-78" value="&lt;u&gt;código&lt;/u&gt;" style="ellipse;whiteSpace=wrap;html=1;align=center;fillColor=#ffe6cc;strokeColor=#d79b00;" vertex="1" parent="1">
          <mxGeometry x="232" y="-400" width="50" height="30" as="geometry" />
        </mxCell>
        <mxCell id="w21d68cJpRMcP1cQmCNz-79" value="nombre" style="ellipse;whiteSpace=wrap;html=1;align=center;" vertex="1" parent="1">
          <mxGeometry x="220" y="-480" width="62" height="30" as="geometry" />
        </mxCell>
        <mxCell id="w21d68cJpRMcP1cQmCNz-85" style="edgeStyle=orthogonalEdgeStyle;rounded=0;orthogonalLoop=1;jettySize=auto;html=1;exitX=1;exitY=0.5;exitDx=0;exitDy=0;entryX=0;entryY=0.5;entryDx=0;entryDy=0;endArrow=none;endFill=0;" edge="1" parent="1" source="w21d68cJpRMcP1cQmCNz-80" target="w21d68cJpRMcP1cQmCNz-5">
          <mxGeometry relative="1" as="geometry" />
        </mxCell>
        <mxCell id="w21d68cJpRMcP1cQmCNz-80" value="galaxia" style="ellipse;whiteSpace=wrap;html=1;align=center;" vertex="1" parent="1">
          <mxGeometry x="210" y="-440" width="60" height="30" as="geometry" />
        </mxCell>
        <mxCell id="w21d68cJpRMcP1cQmCNz-83" style="edgeStyle=orthogonalEdgeStyle;rounded=0;orthogonalLoop=1;jettySize=auto;html=1;exitX=1;exitY=1;exitDx=0;exitDy=0;entryX=0.25;entryY=0;entryDx=0;entryDy=0;endArrow=none;endFill=0;" edge="1" parent="1" source="w21d68cJpRMcP1cQmCNz-81" target="w21d68cJpRMcP1cQmCNz-5">
          <mxGeometry relative="1" as="geometry" />
        </mxCell>
        <mxCell id="w21d68cJpRMcP1cQmCNz-81" value="problema resuelto" style="ellipse;whiteSpace=wrap;html=1;align=center;" vertex="1" parent="1">
          <mxGeometry x="250" y="-530" width="70" height="40" as="geometry" />
        </mxCell>
        <mxCell id="w21d68cJpRMcP1cQmCNz-84" style="edgeStyle=orthogonalEdgeStyle;rounded=0;orthogonalLoop=1;jettySize=auto;html=1;exitX=1;exitY=0.5;exitDx=0;exitDy=0;entryX=0.085;entryY=0.044;entryDx=0;entryDy=0;entryPerimeter=0;endArrow=none;endFill=0;" edge="1" parent="1" source="w21d68cJpRMcP1cQmCNz-79" target="w21d68cJpRMcP1cQmCNz-5">
          <mxGeometry relative="1" as="geometry" />
        </mxCell>
        <mxCell id="w21d68cJpRMcP1cQmCNz-93" style="edgeStyle=orthogonalEdgeStyle;rounded=0;orthogonalLoop=1;jettySize=auto;html=1;exitX=0;exitY=0.5;exitDx=0;exitDy=0;entryX=0.75;entryY=0;entryDx=0;entryDy=0;endArrow=none;endFill=0;" edge="1" parent="1" source="w21d68cJpRMcP1cQmCNz-90" target="w21d68cJpRMcP1cQmCNz-6">
          <mxGeometry relative="1" as="geometry" />
        </mxCell>
        <mxCell id="w21d68cJpRMcP1cQmCNz-90" value="&lt;u&gt;código&lt;/u&gt;" style="ellipse;whiteSpace=wrap;html=1;align=center;fillColor=#ffe6cc;strokeColor=#d79b00;" vertex="1" parent="1">
          <mxGeometry x="735" y="-520" width="50" height="30" as="geometry" />
        </mxCell>
        <mxCell id="w21d68cJpRMcP1cQmCNz-94" style="edgeStyle=orthogonalEdgeStyle;rounded=0;orthogonalLoop=1;jettySize=auto;html=1;exitX=0;exitY=0.5;exitDx=0;exitDy=0;entryX=1;entryY=0.25;entryDx=0;entryDy=0;endArrow=none;endFill=0;" edge="1" parent="1" source="w21d68cJpRMcP1cQmCNz-91" target="w21d68cJpRMcP1cQmCNz-6">
          <mxGeometry relative="1" as="geometry" />
        </mxCell>
        <mxCell id="w21d68cJpRMcP1cQmCNz-91" value="nombre" style="ellipse;whiteSpace=wrap;html=1;align=center;" vertex="1" parent="1">
          <mxGeometry x="780" y="-480" width="62" height="30" as="geometry" />
        </mxCell>
        <mxCell id="w21d68cJpRMcP1cQmCNz-95" style="edgeStyle=orthogonalEdgeStyle;rounded=0;orthogonalLoop=1;jettySize=auto;html=1;exitX=0;exitY=0.5;exitDx=0;exitDy=0;entryX=1;entryY=0.75;entryDx=0;entryDy=0;endArrow=none;endFill=0;" edge="1" parent="1" source="w21d68cJpRMcP1cQmCNz-92" target="w21d68cJpRMcP1cQmCNz-6">
          <mxGeometry relative="1" as="geometry" />
        </mxCell>
        <mxCell id="w21d68cJpRMcP1cQmCNz-92" value="num tripulantes" style="ellipse;whiteSpace=wrap;html=1;align=center;" vertex="1" parent="1">
          <mxGeometry x="780" y="-440" width="70" height="40" as="geometry" />
        </mxCell>
        <mxCell id="w21d68cJpRMcP1cQmCNz-98" value="número entero" style="ellipse;whiteSpace=wrap;html=1;align=center;" vertex="1" parent="1">
          <mxGeometry x="750" y="-170" width="68" height="40" as="geometry" />
        </mxCell>
        <mxCell id="w21d68cJpRMcP1cQmCNz-100" style="edgeStyle=orthogonalEdgeStyle;rounded=0;orthogonalLoop=1;jettySize=auto;html=1;exitX=0;exitY=0.5;exitDx=0;exitDy=0;entryX=1;entryY=0.5;entryDx=0;entryDy=0;endArrow=none;endFill=0;" edge="1" parent="1" source="w21d68cJpRMcP1cQmCNz-99" target="w21d68cJpRMcP1cQmCNz-7">
          <mxGeometry relative="1" as="geometry" />
        </mxCell>
        <mxCell id="w21d68cJpRMcP1cQmCNz-99" value="&lt;u&gt;código&lt;/u&gt;" style="ellipse;whiteSpace=wrap;html=1;align=center;fillColor=#ffe6cc;strokeColor=#d79b00;" vertex="1" parent="1">
          <mxGeometry x="768" y="-215" width="50" height="30" as="geometry" />
        </mxCell>
        <mxCell id="w21d68cJpRMcP1cQmCNz-101" style="edgeStyle=orthogonalEdgeStyle;rounded=0;orthogonalLoop=1;jettySize=auto;html=1;exitX=0;exitY=0;exitDx=0;exitDy=0;entryX=0.856;entryY=1.038;entryDx=0;entryDy=0;entryPerimeter=0;endArrow=none;endFill=0;" edge="1" parent="1" source="w21d68cJpRMcP1cQmCNz-98" target="w21d68cJpRMcP1cQmCNz-7">
          <mxGeometry relative="1" as="geometry" />
        </mxCell>
      </root>
    </mxGraphModel>
  </diagram>
</mxfile>
